<svg width="198" height="39" viewBox="0 0 198 39" fill="none" xmlns="http://www.w3.org/2000/svg">
<path d="M186.459 14H196.759V15.66V18.652H186.783C186.574 18.652 186.325 18.7046 186.132 18.8974C185.939 19.0903 185.887 19.3389 185.887 19.548V21.852C185.887 22.0837 185.941 22.3246 186.095 22.53C186.251 22.738 186.469 22.856 186.697 22.9131L186.71 22.9163L186.723 22.9188L193.38 24.2142C194.786 24.5072 195.791 25.1137 196.452 26.0025C197.119 26.8981 197.479 28.1378 197.479 29.772V32.004C197.479 34.0389 196.97 35.4733 196.041 36.4024C195.112 37.3316 193.678 37.84 191.643 37.84H180.623V36.18V33.188H191.319C191.528 33.188 191.776 33.1354 191.969 32.9426C192.162 32.7497 192.215 32.5011 192.215 32.292V29.844C192.215 29.61 192.165 29.3591 192.007 29.148C191.844 28.9309 191.613 28.8184 191.375 28.7766L184.723 27.4102L184.717 27.409C183.311 27.139 182.308 26.5468 181.648 25.6654C180.983 24.7768 180.623 23.5354 180.623 21.888V19.836C180.623 17.8011 181.131 16.3667 182.06 15.4375C182.989 14.5084 184.424 14 186.459 14Z" stroke="#09234D"/>
<path d="M186.459 11.5H196.759V13.16V16.152H186.783C186.574 16.152 186.325 16.2046 186.132 16.3974C185.939 16.5903 185.887 16.8389 185.887 17.048V19.352C185.887 19.5837 185.941 19.8246 186.095 20.03C186.251 20.238 186.469 20.356 186.697 20.4131L186.71 20.4163L186.723 20.4188L193.38 21.7142C194.786 22.0072 195.791 22.6137 196.452 23.5025C197.119 24.3981 197.479 25.6378 197.479 27.272V29.504C197.479 31.5389 196.97 32.9733 196.041 33.9024C195.112 34.8316 193.678 35.34 191.643 35.34H180.623V33.68V30.688H191.319C191.528 30.688 191.776 30.6354 191.969 30.4426C192.162 30.2497 192.215 30.0011 192.215 29.792V27.344C192.215 27.11 192.165 26.8591 192.007 26.648C191.844 26.4309 191.613 26.3184 191.375 26.2766L184.723 24.9102L184.717 24.909C183.311 24.639 182.308 24.0468 181.648 23.1654C180.983 22.2768 180.623 21.0354 180.623 19.388V17.336C180.623 15.3011 181.131 13.8667 182.06 12.9375C182.989 12.0084 184.424 11.5 186.459 11.5Z" fill="#09234D" stroke="#09234D"/>
<path d="M162.006 30.204V37.84H156.742V14H162.006V21.852V23.1587L162.878 22.1858L170.217 14H176.489L176.119 14.3714L176.11 14.3807L176.101 14.3903L168.037 23.3903L167.778 23.68L167.995 24.0029L176.992 37.3901L177.279 37.8399L171.342 37.84L164.794 27.9833L164.45 27.4645L164.018 27.9132L162.146 29.8572L162.006 30.0024V30.204Z" stroke="#09234D"/>
<path d="M162.006 27.704V35.34H156.742V11.5H162.006V19.352V20.6587L162.878 19.6858L170.217 11.5H176.489L176.119 11.8714L176.11 11.8807L176.101 11.8903L168.037 20.8903L167.778 21.18L167.995 21.5029L176.992 34.8901L177.279 35.3399L171.342 35.34L164.794 25.4833L164.45 24.9645L164.018 25.4132L162.146 27.3572L162.006 27.5024V27.704Z" fill="#09234D" stroke="#09234D"/>
<path d="M130.752 32.004V19.836C130.752 17.8011 131.26 16.3667 132.189 15.4375C133.118 14.5084 134.553 14 136.588 14H144.652C146.686 14 148.121 14.5084 149.05 15.4375C149.979 16.3667 150.488 17.8011 150.488 19.836V32.004C150.488 34.0389 149.979 35.4733 149.05 36.4024C148.121 37.3316 146.686 37.84 144.652 37.84H136.588C134.553 37.84 133.118 37.3316 132.189 36.4024C131.26 35.4733 130.752 34.0389 130.752 32.004ZM136.016 32.292C136.016 32.5011 136.068 32.7497 136.261 32.9426C136.454 33.1354 136.702 33.188 136.912 33.188H144.328C144.537 33.188 144.785 33.1354 144.978 32.9426C145.171 32.7497 145.224 32.5011 145.224 32.292V19.548C145.224 19.3389 145.171 19.0903 144.978 18.8974C144.785 18.7046 144.537 18.652 144.328 18.652H136.912C136.702 18.652 136.454 18.7046 136.261 18.8974C136.068 19.0903 136.016 19.3389 136.016 19.548V32.292Z" stroke="#09234D"/>
<path d="M130.752 29.504V17.336C130.752 15.3011 131.26 13.8667 132.189 12.9375C133.118 12.0084 134.553 11.5 136.588 11.5H144.652C146.686 11.5 148.121 12.0084 149.05 12.9375C149.979 13.8667 150.488 15.3011 150.488 17.336V29.504C150.488 31.5389 149.979 32.9733 149.05 33.9024C148.121 34.8316 146.686 35.34 144.652 35.34H136.588C134.553 35.34 133.118 34.8316 132.189 33.9024C131.26 32.9733 130.752 31.5389 130.752 29.504ZM136.016 29.792C136.016 30.0011 136.068 30.2497 136.261 30.4426C136.454 30.6354 136.702 30.688 136.912 30.688H144.328C144.537 30.688 144.785 30.6354 144.978 30.4426C145.171 30.2497 145.224 30.0011 145.224 29.792V17.048C145.224 16.8389 145.171 16.5903 144.978 16.3974C144.785 16.2046 144.537 16.152 144.328 16.152H136.912C136.702 16.152 136.454 16.2046 136.261 16.3974C136.068 16.5903 136.016 16.8389 136.016 17.048V29.792Z" fill="#09234D" stroke="#09234D"/>
<path d="M113.473 18.652H106.773V14H126.437V18.652H119.737H119.237V19.152V37.84H113.973V19.152V18.652H113.473Z" stroke="#09234D"/>
<path d="M113.473 16.152H106.773V11.5H126.437V16.152H119.737H119.237V16.652V35.34H113.973V16.652V16.152H113.473Z" fill="#09234D" stroke="#09234D"/>
<path d="M92.17 14H102.47V15.66V18.652H92.494C92.2849 18.652 92.0363 18.7046 91.8434 18.8974C91.6506 19.0903 91.598 19.3389 91.598 19.548V21.852C91.598 22.0837 91.652 22.3246 91.806 22.53C91.962 22.738 92.1805 22.856 92.4087 22.9131L92.4215 22.9163L92.4345 22.9188L99.0913 24.2142C100.497 24.5072 101.502 25.1137 102.163 26.0025C102.83 26.8981 103.19 28.1378 103.19 29.772V32.004C103.19 34.0389 102.681 35.4733 101.752 36.4024C100.823 37.3316 99.3889 37.84 97.354 37.84H86.334V36.18V33.188H97.03C97.2391 33.188 97.4877 33.1354 97.6805 32.9426C97.8734 32.7497 97.926 32.5011 97.926 32.292V29.844C97.926 29.61 97.8763 29.3591 97.718 29.148C97.5552 28.9309 97.3247 28.8184 97.0866 28.7766L90.4346 27.4102L90.4283 27.409C89.0223 27.139 88.019 26.5468 87.3593 25.6654C86.6942 24.7768 86.334 23.5354 86.334 21.888V19.836C86.334 17.8011 86.8424 16.3667 87.7715 15.4375C88.7007 14.5084 90.1351 14 92.17 14Z" stroke="#09234D"/>
<path d="M92.17 11.5H102.47V13.16V16.152H92.494C92.2849 16.152 92.0363 16.2046 91.8434 16.3974C91.6506 16.5903 91.598 16.8389 91.598 17.048V19.352C91.598 19.5837 91.652 19.8246 91.806 20.03C91.962 20.238 92.1805 20.356 92.4087 20.4131L92.4215 20.4163L92.4345 20.4188L99.0913 21.7142C100.497 22.0072 101.502 22.6137 102.163 23.5025C102.83 24.3981 103.19 25.6378 103.19 27.272V29.504C103.19 31.5389 102.681 32.9733 101.752 33.9024C100.823 34.8316 99.3889 35.34 97.354 35.34H86.334V33.68V30.688H97.03C97.2391 30.688 97.4877 30.6354 97.6805 30.4426C97.8734 30.2497 97.926 30.0011 97.926 29.792V27.344C97.926 27.11 97.8763 26.8591 97.718 26.648C97.5552 26.4309 97.3247 26.3184 97.0866 26.2766L90.4346 24.9102L90.4283 24.909C89.0223 24.639 88.019 24.0468 87.3593 23.1654C86.6942 22.2768 86.334 21.0354 86.334 19.388V17.336C86.334 15.3011 86.8424 13.8667 87.7715 12.9375C88.7007 12.0084 90.1351 11.5 92.17 11.5Z" fill="#09234D" stroke="#09234D"/>
<path d="M73.2093 33.188H82.7533V37.84H67.4453V14H72.7093V32.688V33.188H73.2093Z" stroke="#09234D"/>
<path d="M73.2093 30.688H82.7533V35.34H67.4453V11.5H72.7093V30.188V30.688H73.2093Z" fill="#09234D" stroke="#09234D"/>
<path d="M53.2406 33.188H62.7846V37.84H47.4766V14H52.7406V32.688V33.188H53.2406Z" stroke="#09234D"/>
<path d="M53.2406 30.688H62.7846V35.34H47.4766V11.5H52.7406V30.188V30.688H53.2406Z" fill="#09234D" stroke="#09234D"/>
<path d="M22.0527 32.004V14H27.3167V32.292C27.3167 32.5011 27.3693 32.7497 27.5622 32.9426C27.755 33.1354 28.0037 33.188 28.2127 33.188H34.9087C35.1178 33.188 35.3664 33.1354 35.5593 32.9426C35.7521 32.7497 35.8047 32.5011 35.8047 32.292V14H41.0687V32.004C41.0687 34.0389 40.5603 35.4733 39.6312 36.4024C38.702 37.3316 37.2677 37.84 35.2327 37.84H27.8887C25.8538 37.84 24.4194 37.3316 23.4903 36.4024C22.5611 35.4733 22.0527 34.0389 22.0527 32.004Z" stroke="#09234D"/>
<path d="M22.0527 29.504V11.5H27.3167V29.792C27.3167 30.0011 27.3693 30.2497 27.5622 30.4426C27.755 30.6354 28.0037 30.688 28.2127 30.688H34.9087C35.1178 30.688 35.3664 30.6354 35.5593 30.4426C35.7521 30.2497 35.8047 30.0011 35.8047 29.792V11.5H41.0687V29.504C41.0687 31.5389 40.5603 32.9733 39.6312 33.9024C38.702 34.8316 37.2677 35.34 35.2327 35.34H27.8887C25.8538 35.34 24.4194 34.8316 23.4903 33.9024C22.5611 32.9733 22.0527 31.5389 22.0527 29.504Z" fill="#09234D" stroke="#09234D"/>
<path d="M6.264 29.592V37.84H1V14H17.388V18.652H6.764H6.264V19.152V23.94V24.44H6.764H16.308V29.092H6.764H6.264V29.592Z" stroke="#09234D"/>
<path d="M6.264 27.092V35.34H1V11.5H17.388V16.152H6.764H6.264V16.652V21.44V21.94H6.764H16.308V26.592H6.764H6.264V27.092Z" fill="#09234D" stroke="#09234D"/>
<rect x="28.6914" y="30.5" width="6" height="1" fill="#09234D"/>
<rect x="28.6914" y="27.5" width="6" height="1" fill="#09234D"/>
<rect x="28.6914" y="24.5" width="6" height="1" fill="#09234D"/>
<rect x="28.6914" y="21.5" width="6" height="1" fill="#09234D"/>
<rect x="28.6914" y="18.5" width="6" height="1" fill="#09234D"/>
<rect x="28.6914" y="15.5" width="6" height="1" fill="#09234D"/>
<rect x="29.1405" y="10.5" width="6" height="1" transform="rotate(26.6855 29.1405 10.5)" fill="#09234D"/>
<rect x="33.9341" y="3.20711" width="5" height="5" transform="rotate(45 33.9341 3.20711)" stroke="#09234D"/>
<rect x="34.2427" y="0.707107" width="5" height="5" transform="rotate(45 34.2427 0.707107)" fill="#09234D" stroke="#09234D"/>
</svg>
