<svg viewBox="0 0 16 13" fill="currentColor" xmlns="http://www.w3.org/2000/svg">
                                    <path fill-rule="evenodd" clip-rule="evenodd" d="M0.781049 0.815917C0 1.63183 0 2.94503 0 5.57143V7.42857C0 10.055 0 11.3682 0.781049 12.1841C1.5621 13 2.81918 13 5.33333 13H10.6667C13.1808 13 14.4379 13 15.219 12.1841C16 11.3682 16 10.055 16 7.42857V5.57143C16 2.94503 16 1.63183 15.219 0.815917C14.4379 0 13.1808 0 10.6667 0H5.33333C2.81918 0 1.5621 0 0.781049 0.815917ZM3.15973 2.94167C2.75126 2.6572 2.19938 2.7725 1.92707 3.19921C1.65475 3.62591 1.76513 4.20243 2.1736 4.4869L7.01387 7.8578C7.61102 8.27368 8.38898 8.27368 8.98613 7.8578L13.8264 4.4869C14.2349 4.20243 14.3452 3.62591 14.0729 3.19921C13.8006 2.7725 13.2487 2.6572 12.8403 2.94167L8 6.31257L3.15973 2.94167Z"  ></path>
                                </svg>