<svg viewBox="0 0 20.3811 17.957" fill="currentColor" >
	 
	<path  d="M1.95 10.77L8.9 17.31C9.07 17.46 9.19 17.57 9.27 17.63C9.47 17.78 9.68 17.88 9.9 17.92C9.99 17.94 10.09 17.95 10.18 17.95C10.28 17.95 10.38 17.94 10.47 17.92C10.69 17.88 10.9 17.78 11.11 17.63C11.18 17.57 11.3 17.46 11.47 17.31L18.42 10.77C18.73 10.48 19 10.17 19.24 9.83C19.45 9.54 19.63 9.23 19.78 8.91C19.94 8.58 20.06 8.24 20.15 7.9C20.26 7.52 20.33 7.14 20.36 6.74C20.39 6.34 20.38 5.95 20.34 5.56C20.3 5.21 20.23 4.86 20.13 4.51C20.03 4.16 19.9 3.83 19.74 3.52C19.56 3.14 19.33 2.79 19.07 2.45L18.76 2.05C18.43 1.62 18.05 1.25 17.62 0.95C17.3 0.73 16.95 0.54 16.57 0.38C16.41 0.32 16.25 0.26 16.08 0.21C15.82 0.14 15.56 0.08 15.3 0.04C15.11 0.02 14.92 0 14.72 0C14.48 -0.01 14.24 0 14 0.03C13.75 0.05 13.51 0.09 13.28 0.15C13.09 0.2 12.91 0.25 12.73 0.32C12.48 0.41 12.23 0.52 12 0.65C11.85 0.73 11.7 0.83 11.55 0.92C11.22 1.15 10.92 1.41 10.65 1.7C10.48 1.89 10.33 2.08 10.19 2.29C10.04 2.08 9.89 1.89 9.72 1.7C9.45 1.41 9.15 1.15 8.82 0.92C8.67 0.83 8.52 0.73 8.37 0.65C8.14 0.52 7.89 0.41 7.64 0.32C7.46 0.25 7.28 0.2 7.09 0.15C6.86 0.09 6.62 0.05 6.37 0.03C6.13 0 5.89 -0.01 5.65 0C5.45 0 5.26 0.02 5.07 0.04C4.81 0.08 4.55 0.14 4.29 0.21C4.13 0.26 3.96 0.32 3.8 0.38C3.42 0.54 3.07 0.73 2.75 0.95C2.32 1.25 1.94 1.62 1.61 2.05L1.3 2.45C1.04 2.79 0.81 3.14 0.63 3.52C0.47 3.83 0.35 4.16 0.24 4.51C0.14 4.86 0.07 5.21 0.03 5.56C-0.01 5.95 -0.02 6.34 0.01 6.74C0.05 7.14 0.11 7.52 0.22 7.9C0.31 8.24 0.44 8.58 0.59 8.91C0.74 9.23 0.92 9.54 1.13 9.83C1.37 10.17 1.64 10.48 1.95 10.77Z" />
</svg>
